<svg width="960" height="540" viewBox="0 0 960 540" fill="none" xmlns="http://www.w3.org/2000/svg">
  <defs>
    <filter id="dcgf" x="-30%" y="-30%" width="160%" height="160%"><feGaussianBlur stdDeviation="2.5" result="b"></feGaussianBlur><feMerge><feMergeNode in="b"></feMergeNode><feMergeNode in="SourceGraphic"></feMergeNode></feMerge></filter>
    <filter id="dcgs" x="-50%" y="-50%" width="200%" height="200%"><feGaussianBlur stdDeviation="6" result="b"></feGaussianBlur><feMerge><feMergeNode in="b"></feMergeNode><feMergeNode in="SourceGraphic"></feMergeNode></feMerge></filter>
    <clipPath id="dcsq"><rect x="4" y="4" width="80" height="80" rx="20"></rect></clipPath>
    <linearGradient id="dcsh" x1="0" y1="0" x2="0" y2="1"><stop offset="0%" stop-color="rgba(255,255,255,0.42)"></stop><stop offset="45%" stop-color="rgba(255,255,255,0.10)"></stop><stop offset="100%" stop-color="rgba(255,255,255,0)"></stop></linearGradient>
  </defs>
  <rect width="480" height="540" fill="#6e56f7"></rect>
  <rect x="480" width="480" height="540" fill="#0e0e1a"></rect>
  <rect x="478" y="0" width="4" height="540" fill="#ffffff"></rect>
  <svg x="160" y="190" width="160" height="160" viewBox="0 0 88 88" overflow="visible">
    <rect x="2" y="2" width="84" height="84" rx="22" fill="rgba(255,255,255,0.18)"></rect>
    <g clip-path="url(#dcsq)">
      <rect x="4" y="4" width="80" height="40" fill="#f2f2f7"></rect>
      <rect x="4" y="44" width="80" height="40" fill="#0e0e1a"></rect>
      <rect x="4" y="41.5" width="80" height="5" fill="#6e56f7" filter="url(#dcgf)"></rect>
      <rect x="11" y="42" width="66" height="4" fill="rgba(110,86,247,0.5)" filter="url(#dcgs)"></rect>
      <rect x="4" y="4" width="80" height="80" fill="url(#dcsh)"></rect>
    </g>
  </svg>
  <text x="520" y="288" font-family="&#39;Space Grotesk&#39;,system-ui,sans-serif" font-weight="700" font-size="56" letter-spacing="-1.5" fill="#f2f2f7">eyeread<tspan fill="#6e56f7">.in</tspan></text>
  <text x="520" y="330" font-family="&#39;Space Grotesk&#39;,system-ui,sans-serif" font-weight="500" font-size="18" fill="#7a7a92">Community · Contributors · Builders</text>
</svg>