<svg width="600" height="120" viewBox="0 0 600 120" fill="none" xmlns="http://www.w3.org/2000/svg">
  <defs>
    <linearGradient id="embg" x1="0" y1="0" x2="600" y2="120" gradientUnits="userSpaceOnUse"><stop offset="0%" stop-color="#0d0b1e"></stop><stop offset="100%" stop-color="#09090e"></stop></linearGradient>
    <radialGradient id="emgl" cx="0%" cy="50%" r="50%"><stop offset="0%" stop-color="#6e56f7" stop-opacity="0.12"></stop><stop offset="100%" stop-color="#6e56f7" stop-opacity="0"></stop></radialGradient>
  </defs>
  <rect width="600" height="120" fill="url(#embg)"></rect>
  <rect width="600" height="120" fill="url(#emgl)"></rect>
  <rect x="0.5" y="0.5" width="599" height="119" fill="none" stroke="rgba(255,255,255,0.07)" stroke-width="1"></rect>
  <svg x="20" y="20" width="80" height="80" viewBox="0 0 88 88" overflow="visible">
    <defs>
      <filter id="emgf" x="-30%" y="-30%" width="160%" height="160%"><feGaussianBlur stdDeviation="2.5" result="b"></feGaussianBlur><feMerge><feMergeNode in="b"></feMergeNode><feMergeNode in="SourceGraphic"></feMergeNode></feMerge></filter>
      <filter id="emgs" x="-50%" y="-50%" width="200%" height="200%"><feGaussianBlur stdDeviation="6" result="b"></feGaussianBlur><feMerge><feMergeNode in="b"></feMergeNode><feMergeNode in="SourceGraphic"></feMergeNode></feMerge></filter>
      <clipPath id="emsq"><rect x="4" y="4" width="80" height="80" rx="20"></rect></clipPath>
      <linearGradient id="emsh" x1="0" y1="0" x2="0" y2="1"><stop offset="0%" stop-color="rgba(255,255,255,0.42)"></stop><stop offset="45%" stop-color="rgba(255,255,255,0.10)"></stop><stop offset="100%" stop-color="rgba(255,255,255,0)"></stop></linearGradient>
    </defs>
    <rect x="2" y="2" width="84" height="84" rx="22" fill="rgba(255,255,255,0.18)"></rect>
    <g clip-path="url(#emsq)">
      <rect x="4" y="4" width="80" height="40" fill="#f2f2f7"></rect>
      <rect x="4" y="44" width="80" height="40" fill="#0e0e1a"></rect>
      <rect x="4" y="41.5" width="80" height="5" fill="#6e56f7" filter="url(#emgf)"></rect>
      <rect x="11" y="42" width="66" height="4" fill="rgba(110,86,247,0.5)" filter="url(#emgs)"></rect>
      <rect x="4" y="4" width="80" height="80" fill="url(#emsh)"></rect>
    </g>
  </svg>
  <text x="118" y="70" font-family="&#39;Space Grotesk&#39;,system-ui,sans-serif" font-weight="700" font-size="28" letter-spacing="-0.6" fill="#f2f2f7">eyeread<tspan fill="#6e56f7">.in</tspan></text>
  <line x1="300" y1="24" x2="300" y2="96" stroke="rgba(255,255,255,0.07)" stroke-width="1"></line>
  <text x="316" y="56" font-family="&#39;Space Grotesk&#39;,system-ui,sans-serif" font-weight="500" font-size="13.5" fill="#9090a8">Invisible teleprompter. Voice tracking.</text>
</svg>