<svg width="1080" height="1080" viewBox="0 0 1080 1080" fill="none" xmlns="http://www.w3.org/2000/svg">
  <rect width="540" height="1080" fill="#6e56f7"></rect>
  <rect x="540" width="540" height="1080" fill="#0e0e1a"></rect>
  <rect x="537" width="6" height="1080" fill="rgba(255,255,255,0.35)"></rect>
  <svg x="150" y="390" width="240" height="240" viewBox="0 0 88 88" overflow="visible">
    <defs>
      <filter id="iggf" x="-30%" y="-30%" width="160%" height="160%"><feGaussianBlur stdDeviation="2.5" result="b"></feGaussianBlur><feMerge><feMergeNode in="b"></feMergeNode><feMergeNode in="SourceGraphic"></feMergeNode></feMerge></filter>
      <filter id="iggs" x="-50%" y="-50%" width="200%" height="200%"><feGaussianBlur stdDeviation="6" result="b"></feGaussianBlur><feMerge><feMergeNode in="b"></feMergeNode><feMergeNode in="SourceGraphic"></feMergeNode></feMerge></filter>
      <clipPath id="igsq"><rect x="4" y="4" width="80" height="80" rx="20"></rect></clipPath>
      <linearGradient id="igsh" x1="0" y1="0" x2="0" y2="1"><stop offset="0%" stop-color="rgba(255,255,255,0.42)"></stop><stop offset="45%" stop-color="rgba(255,255,255,0.10)"></stop><stop offset="100%" stop-color="rgba(255,255,255,0)"></stop></linearGradient>
    </defs>
    <rect x="2" y="2" width="84" height="84" rx="22" fill="rgba(255,255,255,0.18)"></rect>
    <g clip-path="url(#igsq)">
      <rect x="4" y="4" width="80" height="40" fill="#f2f2f7"></rect>
      <rect x="4" y="44" width="80" height="40" fill="#0e0e1a"></rect>
      <rect x="4" y="41.5" width="80" height="5" fill="#6e56f7" filter="url(#iggf)"></rect>
      <rect x="11" y="42" width="66" height="4" fill="rgba(110,86,247,0.5)" filter="url(#iggs)"></rect>
      <rect x="4" y="4" width="80" height="80" fill="url(#igsh)"></rect>
    </g>
  </svg>
  <text x="810" y="580" text-anchor="middle" font-family="&#39;Space Grotesk&#39;,system-ui,sans-serif" font-weight="700" font-size="76" letter-spacing="-2" fill="#f2f2f7">eyeread</text>
  <text x="810" y="660" text-anchor="middle" font-family="&#39;Space Grotesk&#39;,system-ui,sans-serif" font-weight="700" font-size="76" letter-spacing="-2" fill="rgba(255,255,255,0.45)">.in</text>
  <line x1="620" y1="700" x2="1000" y2="700" stroke="rgba(255,255,255,0.08)" stroke-width="1"></line>
  <text x="810" y="760" text-anchor="middle" font-family="&#39;Space Grotesk&#39;,system-ui,sans-serif" font-weight="600" font-size="30" fill="#c8c8dc">Look at the lens.</text>
  <text x="810" y="800" text-anchor="middle" font-family="&#39;Space Grotesk&#39;,system-ui,sans-serif" font-weight="500" font-size="24" fill="#5a5a72">Not your notes.</text>
</svg>