<svg width="1200" height="630" viewBox="0 0 1200 630" fill="none" xmlns="http://www.w3.org/2000/svg">
  <rect width="600" height="630" fill="#6e56f7"></rect>
  <rect x="600" width="600" height="630" fill="#0e0e1a"></rect>
  <rect x="598" y="0" width="4" height="630" fill="#ffffff"></rect>
  <svg x="200" y="215" width="200" height="200" viewBox="0 0 88 88" overflow="visible">
    <defs>
      <filter id="oggf" x="-30%" y="-30%" width="160%" height="160%"><feGaussianBlur stdDeviation="2.5" result="b"></feGaussianBlur><feMerge><feMergeNode in="b"></feMergeNode><feMergeNode in="SourceGraphic"></feMergeNode></feMerge></filter>
      <filter id="oggs" x="-50%" y="-50%" width="200%" height="200%"><feGaussianBlur stdDeviation="6" result="b"></feGaussianBlur><feMerge><feMergeNode in="b"></feMergeNode><feMergeNode in="SourceGraphic"></feMergeNode></feMerge></filter>
      <clipPath id="ogsq"><rect x="4" y="4" width="80" height="80" rx="20"></rect></clipPath>
      <linearGradient id="ogsh" x1="0" y1="0" x2="0" y2="1"><stop offset="0%" stop-color="rgba(255,255,255,0.42)"></stop><stop offset="45%" stop-color="rgba(255,255,255,0.10)"></stop><stop offset="100%" stop-color="rgba(255,255,255,0)"></stop></linearGradient>
    </defs>
    <rect x="2" y="2" width="84" height="84" rx="22" fill="rgba(255,255,255,0.18)"></rect>
    <g clip-path="url(#ogsq)">
      <rect x="4" y="4" width="80" height="40" fill="#f2f2f7"></rect>
      <rect x="4" y="44" width="80" height="40" fill="#0e0e1a"></rect>
      <rect x="4" y="41.5" width="80" height="5" fill="#6e56f7" filter="url(#oggf)"></rect>
      <rect x="11" y="42" width="66" height="4" fill="rgba(110,86,247,0.5)" filter="url(#oggs)"></rect>
      <rect x="4" y="4" width="80" height="80" fill="url(#ogsh)"></rect>
    </g>
  </svg>
  <text x="660" y="290" font-family="&#39;Space Grotesk&#39;,system-ui,sans-serif" font-weight="700" font-size="72" letter-spacing="-2" fill="#f2f2f7">eyeread<tspan fill="#6e56f7">.in</tspan></text>
  <text x="660" y="344" font-family="&#39;Space Grotesk&#39;,system-ui,sans-serif" font-weight="500" font-size="22" fill="#7a7a92">Invisible teleprompter.</text>
  <text x="660" y="374" font-family="&#39;Space Grotesk&#39;,system-ui,sans-serif" font-weight="500" font-size="22" fill="#7a7a92">Voice tracking built in.</text>
</svg>