<svg width="1280" height="320" viewBox="0 0 1280 320" fill="none" xmlns="http://www.w3.org/2000/svg">
  <defs>
    <filter id="rmgf" x="-30%" y="-30%" width="160%" height="160%"><feGaussianBlur stdDeviation="2.5" result="b"></feGaussianBlur><feMerge><feMergeNode in="b"></feMergeNode><feMergeNode in="SourceGraphic"></feMergeNode></feMerge></filter>
    <filter id="rmgs" x="-50%" y="-50%" width="200%" height="200%"><feGaussianBlur stdDeviation="6" result="b"></feGaussianBlur><feMerge><feMergeNode in="b"></feMergeNode><feMergeNode in="SourceGraphic"></feMergeNode></feMerge></filter>
    <clipPath id="rmsq"><rect x="4" y="4" width="80" height="80" rx="20"></rect></clipPath>
    <linearGradient id="rmsh" x1="0" y1="0" x2="0" y2="1"><stop offset="0%" stop-color="rgba(255,255,255,0.42)"></stop><stop offset="45%" stop-color="rgba(255,255,255,0.10)"></stop><stop offset="100%" stop-color="rgba(255,255,255,0)"></stop></linearGradient>
    <radialGradient id="rmgl" cx="50%" cy="0%" r="60%"><stop offset="0%" stop-color="#6e56f7" stop-opacity="0.14"></stop><stop offset="100%" stop-color="#6e56f7" stop-opacity="0"></stop></radialGradient>
  </defs>

  
  <rect width="1280" height="320" fill="#0d1117"></rect>
  <rect width="1280" height="320" fill="url(#rmgl)"></rect>

  
  
  <svg x="460" y="108" width="96" height="96" viewBox="0 0 88 88" overflow="visible">
    <rect x="2" y="2" width="84" height="84" rx="22" fill="rgba(255,255,255,0.18)"></rect>
    <g clip-path="url(#rmsq)">
      <rect x="4" y="4" width="80" height="40" fill="#f2f2f7"></rect>
      <rect x="4" y="44" width="80" height="40" fill="#0e0e1a"></rect>
      <rect x="4" y="41.5" width="80" height="5" fill="#6e56f7" filter="url(#rmgf)"></rect>
      <rect x="11" y="42" width="66" height="4" fill="rgba(110,86,247,0.5)" filter="url(#rmgs)"></rect>
      <rect x="4" y="4" width="80" height="80" fill="url(#rmsh)"></rect>
    </g>
  </svg>
  <text x="572" y="176" font-family="&#39;Space Grotesk&#39;,system-ui,sans-serif" font-weight="700" font-size="72" letter-spacing="-2" fill="#f2f2f7">eyeread<tspan fill="#6e56f7">.in</tspan></text>

  
  <text x="640" y="218" text-anchor="middle" font-family="&#39;Space Grotesk&#39;,system-ui,sans-serif" font-weight="500" font-size="18" fill="#6e7681">Invisible teleprompter · voice tracking · screen-share safe</text>

  
  
  
  
  
  
  

  
  <g transform="translate(413, 248)">
    <rect width="118" height="22" rx="3" fill="#555"></rect>
    <rect x="50" width="68" height="22" rx="3" fill="#0075ca"></rect>
    <rect x="50" width="8" height="22" fill="#0075ca"></rect> 
    <rect width="8" height="22" rx="3" fill="#555"></rect> 
    <text x="25" y="15" text-anchor="middle" font-family="&#39;DejaVu Sans&#39;,Verdana,sans-serif" font-size="10" fill="#fff" opacity="0.9">license</text>
    <text x="85" y="15" text-anchor="middle" font-family="&#39;DejaVu Sans&#39;,Verdana,sans-serif" font-size="10" fill="#fff">AGPL-3.0</text>
  </g>

  
  <g transform="translate(539, 248)">
    <rect width="110" height="22" rx="3" fill="#555"></rect>
    <rect x="58" width="52" height="22" rx="3" fill="#4c4c4c"></rect>
    <rect x="58" width="8" height="22" fill="#4c4c4c"></rect>
    <text x="29" y="15" text-anchor="middle" font-family="&#39;DejaVu Sans&#39;,Verdana,sans-serif" font-size="10" fill="#fff" opacity="0.9">platform</text>
    <text x="84" y="15" text-anchor="middle" font-family="&#39;DejaVu Sans&#39;,Verdana,sans-serif" font-size="10" fill="#fff">macOS</text>
  </g>

  
  <g transform="translate(657, 248)">
    <rect width="84" height="22" rx="3" fill="#555"></rect>
    <rect x="38" width="46" height="22" rx="3" fill="#44cc11"></rect>
    <rect x="38" width="8" height="22" fill="#44cc11"></rect>
    <text x="19" y="15" text-anchor="middle" font-family="&#39;DejaVu Sans&#39;,Verdana,sans-serif" font-size="10" fill="#fff" opacity="0.9">price</text>
    <text x="61" y="15" text-anchor="middle" font-family="&#39;DejaVu Sans&#39;,Verdana,sans-serif" font-size="10" fill="#fff">free</text>
  </g>

  
  <g transform="translate(749, 248)">
    <rect width="118" height="22" rx="3" fill="#555"></rect>
    <rect x="44" width="74" height="22" rx="3" fill="#6e56f7"></rect>
    <rect x="44" width="8" height="22" fill="#6e56f7"></rect>
    <text x="22" y="15" text-anchor="middle" font-family="&#39;DejaVu Sans&#39;,Verdana,sans-serif" font-size="10" fill="#fff" opacity="0.9">voice</text>
    <text x="81" y="15" text-anchor="middle" font-family="&#39;DejaVu Sans&#39;,Verdana,sans-serif" font-size="10" fill="#fff">built-in</text>
  </g>
</svg>